# Blender v2.79 (sub 0) OBJ File: ''
# www.blender.org
mtllib teszt.mtl
o Cube
v 2.313775 -0.407832 3.627549
v 2.313773 0.407832 3.627552
v 0.426462 0.066807 -3.493647
v 1.077940 -0.407832 0.553329
v 2.313775 -0.407832 1.361394
v 1.593447 -0.407832 2.597293
v 1.077940 0.407832 0.553330
v 2.313774 0.407832 1.361395
v 1.593447 0.407832 2.597295
v 1.077852 0.380188 -3.493644
v 1.077852 0.066807 -3.493646
v 1.194285 -0.407833 4.273756
v 1.194285 0.407831 4.273758
v 1.268214 -0.101650 -3.697907
v 1.268215 0.380189 -3.697906
v 0.236100 -0.101650 -3.697908
v 0.236100 0.380189 -3.697906
v 1.268215 -0.101648 -4.979180
v 1.268216 0.380191 -4.979178
v 0.236100 -0.101648 -4.979180
v 0.236100 0.380191 -4.979179
v 2.313773 0.407832 3.627552
v 1.077940 0.407832 0.553330
v 2.313774 0.407832 1.361395
v 1.593447 0.407832 2.597295
v 1.194285 0.407831 4.273758
v 0.426462 0.380188 -3.493645
v 1.077940 -0.407832 0.553329
v 1.077940 0.407832 0.553330
v 0.326539 -0.101651 0.189560
v 0.977684 -0.101651 0.189561
v 0.977684 0.380188 0.189562
v 0.326539 0.380188 0.189561
v 1.268214 -0.101650 -3.697907
v 1.268215 0.380189 -3.697906
v 0.236100 -0.101650 -3.697908
v 0.236100 0.380189 -3.697906
v 1.077852 0.380188 -3.493644
v 0.426462 0.380188 -3.493645
v 1.077940 0.407832 0.553330
v 0.977684 0.380188 0.189562
v 0.326539 0.380188 0.189561
v 1.268215 0.380189 -3.697906
v 0.236100 0.380189 -3.697906
v -2.313775 -0.407832 3.627549
v -2.313773 0.407832 3.627552
v 0.000000 -0.407832 3.627549
v -0.426462 0.066807 -3.493647
v -1.077940 -0.407832 0.553329
v -2.313775 -0.407832 1.361394
v -1.593447 -0.407832 2.597293
v -1.077940 0.407832 0.553330
v -2.313774 0.407832 1.361395
v -1.593447 0.407832 2.597295
v -1.077852 0.380188 -3.493644
v -1.077852 0.066807 -3.493646
v 0.000000 -0.407832 2.597293
v 0.000000 -0.407832 1.361394
v 0.000000 -0.407832 0.553328
v -1.194285 -0.407833 4.273756
v -1.194285 0.407831 4.273758
v 0.000000 -0.407833 4.273756
v 0.000000 0.407831 4.273757
v -1.268214 -0.101650 -3.697907
v -1.268215 0.380189 -3.697906
v -0.236100 -0.101650 -3.697908
v -0.236100 0.380189 -3.697906
v -1.268215 -0.101648 -4.979180
v -1.268216 0.380191 -4.979178
v -0.236100 -0.101648 -4.979180
v -0.236100 0.380191 -4.979179
v -2.313773 0.407832 3.627552
v 0.000000 0.407832 3.627550
v -1.077940 0.407832 0.553330
v -2.313774 0.407832 1.361395
v -1.593447 0.407832 2.597295
v 0.000000 0.407832 0.553329
v 0.000000 0.407832 1.361394
v 0.000000 0.407832 2.597293
v -1.194285 0.407831 4.273758
v 0.000000 0.407831 4.273757
v -0.426462 0.380188 -3.493645
v -1.077940 -0.407832 0.553329
v -1.077940 0.407832 0.553330
v 0.000000 0.407832 0.553329
v 0.000000 -0.407832 0.553328
v -0.326539 -0.101651 0.189560
v -0.977684 -0.101651 0.189561
v -0.977684 0.380188 0.189562
v -0.326539 0.380188 0.189561
v -1.268214 -0.101650 -3.697907
v -1.268215 0.380189 -3.697906
v -0.236100 -0.101650 -3.697908
v -0.236100 0.380189 -3.697906
v -1.077852 0.380188 -3.493644
v -0.426462 0.380188 -3.493645
v -1.077940 0.407832 0.553330
v 0.000000 0.407832 0.553329
v -0.977684 0.380188 0.189562
v -0.326539 0.380188 0.189561
v -1.268215 0.380189 -3.697906
v -0.236100 0.380189 -3.697906
vn 0.8196 0.0000 -0.5730
vn 0.9641 0.0000 -0.2657
vn 0.0000 -1.0000 0.0000
vn 0.0000 -0.7651 -0.6440
vn 0.7316 -0.0000 0.6818
vn 0.5473 0.0000 -0.8370
vn 0.8640 0.0000 0.5036
vn 0.0000 -0.0000 1.0000
vn 0.4999 -0.0000 0.8661
vn -0.0000 1.0000 0.0000
vn 0.0000 0.0000 -1.0000
vn 1.0000 -0.0000 0.0000
vn -1.0000 -0.0000 -0.0000
vn 0.9996 -0.0000 0.0272
vn 0.0000 -0.9990 -0.0457
vn -0.9996 -0.0000 -0.0271
vn -0.7442 0.0000 -0.6680
vn -0.7316 -0.0000 0.6818
vn -0.0000 -0.7715 0.6363
vn 0.0000 0.9971 -0.0758
vn -0.8196 0.0000 -0.5730
vn -0.9641 0.0000 -0.2657
vn -0.5473 0.0000 -0.8370
vn -0.8640 0.0000 0.5036
vn -0.4999 -0.0000 0.8661
vn -0.9996 -0.0000 0.0272
vn 0.9996 -0.0000 -0.0271
vn 0.7442 0.0000 -0.6680
usemtl start
s off
f 9//1 1//1 6//1
f 31//2 29//2 28//2
f 6//3 47//3 57//3
f 4//3 58//3 59//3
f 6//3 58//3 5//3
f 28//4 30//4 31//4
f 11//5 35//5 10//5
f 7//6 5//6 4//6
f 8//7 6//7 5//7
f 13//8 62//8 12//8
f 47//3 12//3 62//3
f 2//9 12//9 1//9
f 15//10 21//10 17//10
f 18//11 21//11 19//11
f 14//12 19//12 15//12
f 16//13 21//13 20//13
f 16//3 18//3 14//3
f 73//10 26//10 22//10
f 25//10 73//10 22//10
f 23//10 78//10 24//10
f 78//10 25//10 24//10
f 11//14 32//14 31//14
f 31//15 3//15 11//15
f 3//16 33//16 27//16
f 30//17 85//17 33//17
f 3//18 37//18 36//18
f 3//19 34//19 11//19
f 42//20 40//20 41//20
f 39//10 41//10 38//10
f 39//10 43//10 44//10
f 45//21 54//21 51//21
f 88//22 84//22 89//22
f 51//3 47//3 45//3
f 49//3 58//3 50//3
f 58//3 51//3 50//3
f 87//4 83//4 88//4
f 92//18 56//18 55//18
f 50//23 52//23 49//23
f 51//24 53//24 50//24
f 62//8 61//8 60//8
f 47//3 60//3 45//3
f 60//25 46//25 45//25
f 71//10 65//10 67//10
f 71//11 68//11 69//11
f 69//13 64//13 65//13
f 66//12 71//12 67//12
f 68//3 66//3 64//3
f 80//10 73//10 72//10
f 76//10 73//10 79//10
f 74//10 78//10 77//10
f 76//10 78//10 75//10
f 56//26 89//26 55//26
f 48//15 88//15 56//15
f 90//27 48//27 82//27
f 85//28 87//28 90//28
f 48//5 94//5 82//5
f 91//19 48//19 56//19
f 97//20 100//20 99//20
f 99//10 96//10 95//10
f 102//10 95//10 96//10
f 9//1 2//1 1//1
f 31//2 32//2 29//2
f 6//3 1//3 47//3
f 4//3 5//3 58//3
f 6//3 57//3 58//3
f 28//4 86//4 30//4
f 11//5 34//5 35//5
f 7//6 8//6 5//6
f 8//7 9//7 6//7
f 13//8 63//8 62//8
f 47//3 1//3 12//3
f 2//9 13//9 12//9
f 15//10 19//10 21//10
f 18//11 20//11 21//11
f 14//12 18//12 19//12
f 16//13 17//13 21//13
f 16//3 20//3 18//3
f 73//10 81//10 26//10
f 25//10 79//10 73//10
f 23//10 77//10 78//10
f 78//10 79//10 25//10
f 11//14 10//14 32//14
f 31//15 30//15 3//15
f 3//16 30//16 33//16
f 30//17 86//17 85//17
f 3//18 27//18 37//18
f 3//19 36//19 34//19
f 42//20 98//20 40//20
f 39//10 42//10 41//10
f 39//10 38//10 43//10
f 45//21 46//21 54//21
f 88//22 83//22 84//22
f 51//3 57//3 47//3
f 49//3 59//3 58//3
f 58//3 57//3 51//3
f 87//4 86//4 83//4
f 92//18 91//18 56//18
f 50//23 53//23 52//23
f 51//24 54//24 53//24
f 62//8 63//8 61//8
f 47//3 62//3 60//3
f 60//25 61//25 46//25
f 71//10 69//10 65//10
f 71//11 70//11 68//11
f 69//13 68//13 64//13
f 66//12 70//12 71//12
f 68//3 70//3 66//3
f 80//10 81//10 73//10
f 76//10 72//10 73//10
f 74//10 75//10 78//10
f 76//10 79//10 78//10
f 56//26 88//26 89//26
f 48//15 87//15 88//15
f 90//27 87//27 48//27
f 85//28 86//28 87//28
f 48//5 93//5 94//5
f 91//19 93//19 48//19
f 97//20 98//20 100//20
f 99//10 100//10 96//10
f 102//10 101//10 95//10
