# Blender v2.79 (sub 0) OBJ File: 'untitled.blend'
# www.blender.org
mtllib test.mtl
o Cube
v 2.313775 -0.407832 3.627549
v 2.313773 0.407832 3.627552
v 0.426462 0.066807 -3.493647
v 1.077940 -0.407832 0.553329
v 2.313775 -0.407832 1.361394
v 1.593447 -0.407832 2.597293
v 1.077940 0.407832 0.553330
v 2.313774 0.407832 1.361395
v 1.593447 0.407832 2.597295
v 1.077852 0.380188 -3.493644
v 1.077852 0.066807 -3.493646
v 1.194285 -0.407833 4.273756
v 1.194285 0.407831 4.273758
v 1.268214 -0.101650 -3.697907
v 1.268215 0.380189 -3.697906
v 0.236100 -0.101650 -3.697908
v 0.236100 0.380189 -3.697906
v 1.268215 -0.101648 -4.979180
v 1.268216 0.380191 -4.979178
v 0.236100 -0.101648 -4.979180
v 0.236100 0.380191 -4.979179
v 2.313773 0.407832 3.627552
v 1.077940 0.407832 0.553330
v 2.313774 0.407832 1.361395
v 1.593447 0.407832 2.597295
v 1.194285 0.407831 4.273758
v 0.426462 0.380188 -3.493645
v 1.077940 -0.407832 0.553329
v 1.077940 0.407832 0.553330
v 0.326539 -0.101651 0.189560
v 0.977684 -0.101651 0.189561
v 0.977684 0.380188 0.189562
v 0.326539 0.380188 0.189561
v 1.268214 -0.101650 -3.697907
v 1.268215 0.380189 -3.697906
v 0.236100 -0.101650 -3.697908
v 0.236100 0.380189 -3.697906
v 1.077852 0.380188 -3.493644
v 0.426462 0.380188 -3.493645
v 1.077940 0.407832 0.553330
v 0.977684 0.380188 0.189562
v 0.326539 0.380188 0.189561
v 1.268215 0.380189 -3.697906
v 0.236100 0.380189 -3.697906
v -2.313775 -0.407832 3.627549
v -2.313773 0.407832 3.627552
v 0.000000 -0.407832 3.627549
v -0.426462 0.066807 -3.493647
v -1.077940 -0.407832 0.553329
v -2.313775 -0.407832 1.361394
v -1.593447 -0.407832 2.597293
v -1.077940 0.407832 0.553330
v -2.313774 0.407832 1.361395
v -1.593447 0.407832 2.597295
v -1.077852 0.380188 -3.493644
v -1.077852 0.066807 -3.493646
v 0.000000 -0.407832 2.597293
v 0.000000 -0.407832 1.361394
v 0.000000 -0.407832 0.553328
v -1.194285 -0.407833 4.273756
v -1.194285 0.407831 4.273758
v 0.000000 -0.407833 4.273756
v 0.000000 0.407831 4.273757
v -1.268214 -0.101650 -3.697907
v -1.268215 0.380189 -3.697906
v -0.236100 -0.101650 -3.697908
v -0.236100 0.380189 -3.697906
v -1.268215 -0.101648 -4.979180
v -1.268216 0.380191 -4.979178
v -0.236100 -0.101648 -4.979180
v -0.236100 0.380191 -4.979179
v -2.313773 0.407832 3.627552
v 0.000000 0.407832 3.627550
v -1.077940 0.407832 0.553330
v -2.313774 0.407832 1.361395
v -1.593447 0.407832 2.597295
v 0.000000 0.407832 0.553329
v 0.000000 0.407832 1.361394
v 0.000000 0.407832 2.597293
v -1.194285 0.407831 4.273758
v 0.000000 0.407831 4.273757
v -0.426462 0.380188 -3.493645
v -1.077940 -0.407832 0.553329
v -1.077940 0.407832 0.553330
v 0.000000 0.407832 0.553329
v 0.000000 -0.407832 0.553328
v -0.326539 -0.101651 0.189560
v -0.977684 -0.101651 0.189561
v -0.977684 0.380188 0.189562
v -0.326539 0.380188 0.189561
v -1.268214 -0.101650 -3.697907
v -1.268215 0.380189 -3.697906
v -0.236100 -0.101650 -3.697908
v -0.236100 0.380189 -3.697906
v -1.077852 0.380188 -3.493644
v -0.426462 0.380188 -3.493645
v -1.077940 0.407832 0.553330
v 0.000000 0.407832 0.553329
v -0.977684 0.380188 0.189562
v -0.326539 0.380188 0.189561
v -1.268215 0.380189 -3.697906
v -0.236100 0.380189 -3.697906
vt 0.727807 0.224600
vt 0.834567 0.343351
vt 0.716549 0.350350
vt 0.025341 0.066103
vt 0.021743 0.099124
vt 0.003020 0.068685
vt 0.812548 0.584362
vt 0.703710 0.584362
vt 0.455849 0.419009
vt 0.555302 0.584362
vt 0.452013 0.584362
vt 0.564966 0.305617
vt 0.025629 0.026187
vt 0.257031 0.069005
vt 0.257912 0.094986
vt 0.248781 0.088220
vt 0.390925 0.311413
vt 0.552570 0.205231
vt 0.970498 0.414584
vt 0.891009 0.584362
vt 0.888402 0.441636
vt 0.888138 0.263090
vt 0.458570 0.079049
vt 0.953480 0.055295
vt 0.515774 0.079049
vt 0.956267 0.054520
vt 0.955079 0.053141
vt 0.453774 0.022443
vt 0.510929 0.022713
vt 0.954794 0.056655
vt 0.228612 0.346649
vt 0.351404 0.213767
vt 0.466506 0.346648
vt 0.392445 0.558503
vt 0.339442 0.978809
vt 0.228612 0.812645
vt 0.466506 0.812645
vt 0.033925 0.090894
vt 0.255804 0.023341
vt 0.035370 0.000248
vt 0.248397 0.003202
vt 0.011593 -0.003573
vt 0.258935 -0.003854
vt 0.273666 0.015262
vt 0.272700 0.078168
vt 0.034305 0.182086
vt 0.011439 0.089605
vt 0.034305 0.089605
vt 0.857995 0.182086
vt 0.857995 0.089605
vt 0.887606 0.089605
vt 0.887606 0.182086
vt 0.834567 0.825373
vt 0.727807 0.944125
vt 0.716549 0.818375
vt 0.021678 0.026524
vt 0.030691 0.002148
vt 0.039900 0.008160
vt 0.455849 0.749716
vt 0.564966 0.863108
vt 0.006660 0.056014
vt 0.000010 0.024742
vt 0.268841 0.003875
vt 0.257982 0.023075
vt 0.256977 0.008925
vt 0.390925 0.857311
vt 0.552570 0.963493
vt 0.970498 0.754141
vt 0.888402 0.727088
vt 0.888138 0.905635
vt 0.943754 0.177375
vt 0.665777 0.008017
vt 0.720708 0.008017
vt 0.960711 0.135129
vt 0.965577 0.156785
vt 0.659757 0.064487
vt 0.714688 0.064487
vt 0.105820 0.213767
vt -0.009282 0.346648
vt 0.064780 0.558503
vt 0.228612 0.558503
vt 0.117782 0.978809
vt 0.228612 0.978809
vt -0.009282 0.812645
vt 0.239220 0.056820
vt 0.006599 0.075123
vt 0.223977 0.071740
vt 0.231967 0.076894
vt 0.277401 0.016217
vt 0.012864 0.177985
vt 0.035501 0.083194
vt 0.035501 0.177985
vt 0.859395 0.083194
vt 0.859395 0.177985
vt 0.889031 0.083194
vt 0.002165 0.025049
vt 0.983167 0.584362
vt 0.228612 0.213767
vt 0.011439 0.182086
vt 0.938888 0.155719
vt 0.254254 0.062688
vt 0.012864 0.083194
vt 0.889031 0.177985
vn 0.8196 0.0000 -0.5730
vn 0.9641 0.0000 -0.2657
vn 0.0000 -1.0000 0.0000
vn 0.0000 -0.7651 -0.6440
vn 0.7316 -0.0000 0.6818
vn 0.5473 0.0000 -0.8370
vn 0.8640 0.0000 0.5036
vn 0.0000 -0.0000 1.0000
vn 0.4999 -0.0000 0.8661
vn -0.0000 1.0000 0.0000
vn 0.0000 0.0000 -1.0000
vn 1.0000 -0.0000 0.0000
vn -1.0000 -0.0000 -0.0000
vn 0.9996 -0.0000 0.0272
vn 0.0000 -0.9990 -0.0457
vn -0.9996 -0.0000 -0.0271
vn -0.7442 0.0000 -0.6680
vn -0.7316 -0.0000 0.6818
vn -0.0000 -0.7715 0.6363
vn 0.0000 0.9971 -0.0758
vn -0.8196 0.0000 -0.5730
vn -0.9641 0.0000 -0.2657
vn -0.5473 0.0000 -0.8370
vn -0.8640 0.0000 0.5036
vn -0.4999 -0.0000 0.8661
vn -0.9996 -0.0000 0.0272
vn 0.9996 -0.0000 -0.0271
vn 0.7442 0.0000 -0.6680
usemtl start
s off
f 9/1/1 1/2/1 6/3/1
f 31/4/2 29/5/2 28/6/2
f 6/3/3 47/7/3 57/8/3
f 4/9/3 58/10/3 59/11/3
f 6/3/3 58/10/3 5/12/3
f 28/6/4 30/13/4 31/4/4
f 11/14/5 35/15/5 10/16/5
f 7/17/6 5/12/6 4/9/6
f 8/18/7 6/3/7 5/12/7
f 13/19/8 62/20/8 12/21/8
f 47/7/3 12/21/3 62/20/3
f 2/22/9 12/21/9 1/2/9
f 15/23/10 21/24/10 17/25/10
f 18/26/11 21/24/11 19/27/11
f 14/28/12 19/27/12 15/23/12
f 16/29/13 21/24/13 20/30/13
f 16/29/3 18/26/3 14/28/3
f 73/31/10 26/32/10 22/33/10
f 25/34/10 73/31/10 22/33/10
f 23/35/10 78/36/10 24/37/10
f 78/36/10 25/34/10 24/37/10
f 11/14/14 32/38/14 31/4/14
f 31/4/15 3/39/15 11/14/15
f 3/39/16 33/40/16 27/41/16
f 30/13/17 85/42/17 33/40/17
f 3/39/18 37/43/18 36/44/18
f 3/39/19 34/45/19 11/14/19
f 42/46/20 40/47/20 41/48/20
f 39/49/10 41/48/10 38/50/10
f 39/49/10 43/51/10 44/52/10
f 45/53/21 54/54/21 51/55/21
f 88/56/22 84/57/22 89/58/22
f 51/55/3 47/7/3 45/53/3
f 49/59/3 58/10/3 50/60/3
f 58/10/3 51/55/3 50/60/3
f 87/61/4 83/62/4 88/56/4
f 92/63/18 56/64/18 55/65/18
f 50/60/23 52/66/23 49/59/23
f 51/55/24 53/67/24 50/60/24
f 62/20/8 61/68/8 60/69/8
f 47/7/3 60/69/3 45/53/3
f 60/69/25 46/70/25 45/53/25
f 71/71/10 65/72/10 67/73/10
f 71/71/11 68/74/11 69/75/11
f 69/75/13 64/76/13 65/72/13
f 66/77/12 71/71/12 67/73/12
f 68/74/3 66/77/3 64/76/3
f 80/78/10 73/31/10 72/79/10
f 76/80/10 73/31/10 79/81/10
f 74/82/10 78/36/10 77/83/10
f 76/80/10 78/36/10 75/84/10
f 56/64/26 89/58/26 55/65/26
f 48/85/15 88/56/15 56/64/15
f 90/86/27 48/85/27 82/87/27
f 85/42/28 87/61/28 90/86/28
f 48/85/5 94/88/5 82/87/5
f 91/89/19 48/85/19 56/64/19
f 97/90/20 100/91/20 99/92/20
f 99/92/10 96/93/10 95/94/10
f 102/95/10 95/94/10 96/93/10
f 9/1/1 2/22/1 1/2/1
f 31/4/2 32/38/2 29/5/2
f 6/3/3 1/2/3 47/7/3
f 4/9/3 5/12/3 58/10/3
f 6/3/3 57/8/3 58/10/3
f 28/6/4 86/96/4 30/13/4
f 11/14/5 34/45/5 35/15/5
f 7/17/6 8/18/6 5/12/6
f 8/18/7 9/1/7 6/3/7
f 13/19/8 63/97/8 62/20/8
f 47/7/3 1/2/3 12/21/3
f 2/22/9 13/19/9 12/21/9
f 15/23/10 19/27/10 21/24/10
f 18/26/11 20/30/11 21/24/11
f 14/28/12 18/26/12 19/27/12
f 16/29/13 17/25/13 21/24/13
f 16/29/3 20/30/3 18/26/3
f 73/31/10 81/98/10 26/32/10
f 25/34/10 79/81/10 73/31/10
f 23/35/10 77/83/10 78/36/10
f 78/36/10 79/81/10 25/34/10
f 11/14/14 10/16/14 32/38/14
f 31/4/15 30/13/15 3/39/15
f 3/39/16 30/13/16 33/40/16
f 30/13/17 86/96/17 85/42/17
f 3/39/18 27/41/18 37/43/18
f 3/39/19 36/44/19 34/45/19
f 42/46/20 98/99/20 40/47/20
f 39/49/10 42/46/10 41/48/10
f 39/49/10 38/50/10 43/51/10
f 45/53/21 46/70/21 54/54/21
f 88/56/22 83/62/22 84/57/22
f 51/55/3 57/8/3 47/7/3
f 49/59/3 59/11/3 58/10/3
f 58/10/3 57/8/3 51/55/3
f 87/61/4 86/96/4 83/62/4
f 92/63/18 91/89/18 56/64/18
f 50/60/23 53/67/23 52/66/23
f 51/55/24 54/54/24 53/67/24
f 62/20/8 63/97/8 61/68/8
f 47/7/3 62/20/3 60/69/3
f 60/69/25 61/68/25 46/70/25
f 71/71/10 69/75/10 65/72/10
f 71/71/11 70/100/11 68/74/11
f 69/75/13 68/74/13 64/76/13
f 66/77/12 70/100/12 71/71/12
f 68/74/3 70/100/3 66/77/3
f 80/78/10 81/98/10 73/31/10
f 76/80/10 72/79/10 73/31/10
f 74/82/10 75/84/10 78/36/10
f 76/80/10 79/81/10 78/36/10
f 56/64/26 88/56/26 89/58/26
f 48/85/15 87/61/15 88/56/15
f 90/86/27 87/61/27 48/85/27
f 85/42/28 86/96/28 87/61/28
f 48/85/5 93/101/5 94/88/5
f 91/89/19 93/101/19 48/85/19
f 97/90/20 98/102/20 100/91/20
f 99/92/10 100/91/10 96/93/10
f 102/95/10 101/103/10 95/94/10
